<svg xmlns="http://www.w3.org/2000/svg" width="14.516" height="12.07" viewBox="0 0 14.516 12.07">
  <g id="down-arrow" transform="translate(0 53.529) rotate(-90)">
    <g id="Grupo_93" data-name="Grupo 93" transform="translate(41.46)">
      <path id="Trazado_1112" data-name="Trazado 1112" d="M53.3,7.923l-.475-.476a.788.788,0,0,0-.561-.232.831.831,0,0,0-.58.232L48.607,10.5V.794A.765.765,0,0,0,47.849,0h-.673a.834.834,0,0,0-.838.794v9.743L43.27,7.447a.763.763,0,0,0-.55-.232.776.776,0,0,0-.556.232l-.473.476a.8.8,0,0,0,0,1.123l5.239,5.239a.791.791,0,0,0,.564.232h0a.789.789,0,0,0,.561-.232L53.3,9.046A.8.8,0,0,0,53.3,7.923Z" transform="translate(-41.46)" fill="#fff"/>
    </g>
  </g>
</svg>
