<svg xmlns="http://www.w3.org/2000/svg" width="33.323" height="33.323" viewBox="0 0 33.323 33.323">
  <g id="help" transform="translate(0 0)">
    <path id="Trazado_1133" data-name="Trazado 1133" d="M16.662,33.323A16.662,16.662,0,0,1,4.88,4.88,16.662,16.662,0,0,1,28.443,28.443a16.552,16.552,0,0,1-11.782,4.88Zm0-31.241A14.579,14.579,0,1,0,31.241,16.662,14.6,14.6,0,0,0,16.662,2.083Z" transform="translate(0)" fill="#c7c7c7"/>
    <path id="Trazado_1134" data-name="Trazado 1134" d="M181.207,113.7a1.041,1.041,0,0,1-1.041-1.041,9.776,9.776,0,0,1,2.882-6.958,6.119,6.119,0,0,0,1.8-4.355,3.269,3.269,0,0,0-3.266-3.266h-.237a3.269,3.269,0,0,0-3.266,3.266v.379a1.041,1.041,0,1,1-2.083,0v-.379A5.355,5.355,0,0,1,181.348,96h.237a5.355,5.355,0,0,1,5.348,5.348,8.188,8.188,0,0,1-2.414,5.828,7.707,7.707,0,0,0-2.272,5.486A1.041,1.041,0,0,1,181.207,113.7Z" transform="translate(-164.545 -89.752)" fill="#c7c7c7"/>
    <path id="Trazado_1135" data-name="Trazado 1135" d="M241.057,402.083a1.041,1.041,0,1,1,0-2.083h0a1.041,1.041,0,1,1,0,2.083Z" transform="translate(-224.394 -373.966)" fill="#c7c7c7"/>
  </g>
</svg>
