<svg xmlns="http://www.w3.org/2000/svg" width="24.352" height="15.219" viewBox="0 0 24.352 15.219">
  <g id="agreement" transform="translate(0 -96.003)">
    <g id="Grupo_104" data-name="Grupo 104" transform="translate(3.55 97.081)">
      <g id="Grupo_103" data-name="Grupo 103" transform="translate(0 0)">
        <path id="Trazado_1119" data-name="Trazado 1119" d="M90.32,128.016c-.478-1-2.188-2.379-3.839-3.716-.921-.745-1.792-1.449-2.347-2a.507.507,0,0,0-.531-.119c-.342.124-.553.219-.719.293a1.678,1.678,0,0,1-.681.187.507.507,0,0,0-.371.222,1.552,1.552,0,0,1-1.956.815c-.158-.053-.187-.121-.2-.186a3.354,3.354,0,0,1,1.121-2.175c1.649-1.65,2.5-2.063,4.3-1.26,2.037.911,4.079,1.624,4.1,1.632a.508.508,0,0,0,.334-.959c-.02-.007-2.021-.706-4.018-1.6-2.327-1.04-3.6-.355-5.426,1.469-.694.694-1.637,2.1-1.393,3.128a1.255,1.255,0,0,0,.872.914,2.539,2.539,0,0,0,2.98-1.021,2.561,2.561,0,0,0,.762-.241c.1-.043.207-.092.355-.152.58.545,1.364,1.179,2.189,1.846,1.492,1.206,3.183,2.574,3.563,3.366a.594.594,0,0,1-.151.762.559.559,0,0,1-.625.123.507.507,0,0,0-.792.472.613.613,0,0,1-.389.571.779.779,0,0,1-.79.018.507.507,0,0,0-.851.324.964.964,0,0,1-.6.777.535.535,0,0,1-.582-.09.513.513,0,0,0-.464-.118.507.507,0,0,0-.356.32c-.019.051-.063.173-.538.173a2.921,2.921,0,0,1-1.243-.425c-.356-.234-2.589-1.9-4.518-3.516-.271-.228-.74-.717-1.154-1.15-.367-.384-.7-.732-.876-.878a.508.508,0,1,0-.655.775c.157.133.462.455.8.8.453.473.92.962,1.235,1.226,1.889,1.582,4.16,3.29,4.613,3.587a3.892,3.892,0,0,0,1.8.591,1.746,1.746,0,0,0,1.152-.339,1.579,1.579,0,0,0,1.154-.012,2,2,0,0,0,1.056-.975,1.962,1.962,0,0,0,1.273-.184,1.721,1.721,0,0,0,.847-.885,1.659,1.659,0,0,0,1.164-.417A1.613,1.613,0,0,0,90.32,128.016Z" transform="translate(-74.642 -118.658)" fill="#508ff4"/>
      </g>
    </g>
    <g id="Grupo_106" data-name="Grupo 106" transform="translate(5.073 98.032)">
      <g id="Grupo_105" data-name="Grupo 105">
        <path id="Trazado_1120" data-name="Trazado 1120" d="M111.739,138.663h-4.566a.507.507,0,1,0,0,1.015h4.566a.507.507,0,0,0,0-1.015Z" transform="translate(-106.666 -138.663)" fill="#508ff4"/>
      </g>
    </g>
    <g id="Grupo_108" data-name="Grupo 108" transform="translate(18.302 105.134)">
      <g id="Grupo_107" data-name="Grupo 107" transform="translate(0 0)">
        <path id="Trazado_1121" data-name="Trazado 1121" d="M387.223,288.2a.506.506,0,0,0-.7-.138l-1.483,1a.507.507,0,0,0,.566.842l1.483-1A.508.508,0,0,0,387.223,288.2Z" transform="translate(-384.811 -287.977)" fill="#508ff4"/>
      </g>
    </g>
    <g id="Grupo_110" data-name="Grupo 110" transform="translate(13.699 104.627)">
      <g id="Grupo_109" data-name="Grupo 109">
        <path id="Trazado_1122" data-name="Trazado 1122" d="M291.882,280.471c-.363-.286-1.988-1.949-2.992-3a.507.507,0,0,0-.733.7c.261.272,2.561,2.67,3.1,3.092a.505.505,0,0,0,.314.109.513.513,0,0,0,.4-.194A.507.507,0,0,0,291.882,280.471Z" transform="translate(-288.015 -277.317)" fill="#508ff4"/>
      </g>
    </g>
    <g id="Grupo_112" data-name="Grupo 112" transform="translate(12.176 106.15)">
      <g id="Grupo_111" data-name="Grupo 111" transform="translate(0 0)">
        <path id="Trazado_1123" data-name="Trazado 1123" d="M259.366,311.985c-.608-.486-2.135-2.108-2.48-2.484a.508.508,0,0,0-.748.687c.018.019,1.841,1.987,2.593,2.589a.507.507,0,0,0,.634-.792Z" transform="translate(-256.005 -309.337)" fill="#508ff4"/>
      </g>
    </g>
    <g id="Grupo_114" data-name="Grupo 114" transform="translate(10.147 107.163)">
      <g id="Grupo_113" data-name="Grupo 113">
        <path id="Trazado_1124" data-name="Trazado 1124" d="M216.714,333.3c-.723-.61-2.2-2.186-2.493-2.5a.508.508,0,0,0-.742.693c.416.445,1.832,1.947,2.58,2.578a.508.508,0,0,0,.654-.776Z" transform="translate(-213.343 -330.644)" fill="#508ff4"/>
      </g>
    </g>
    <g id="Grupo_116" data-name="Grupo 116" transform="translate(0 96.003)">
      <g id="Grupo_115" data-name="Grupo 115">
        <path id="Trazado_1125" data-name="Trazado 1125" d="M5.93,97.157C5.06,96.333,1.583,96.066.538,96A.507.507,0,0,0,0,96.51v9.132a.508.508,0,0,0,.507.507H3.551a.507.507,0,0,0,.482-.35,53.192,53.192,0,0,0,2.053-8.231A.5.5,0,0,0,5.93,97.157Zm-2.749,7.978H1.015V97.054a15.414,15.414,0,0,1,4.029.719A53.235,53.235,0,0,1,3.181,105.135Z" transform="translate(0 -96.004)" fill="#508ff4"/>
      </g>
    </g>
    <g id="Grupo_118" data-name="Grupo 118" transform="translate(17.267 97.018)">
      <g id="Grupo_117" data-name="Grupo 117">
        <path id="Trazado_1126" data-name="Trazado 1126" d="M369.624,117.33a15.831,15.831,0,0,0-6.286,1.062.5.5,0,0,0-.271.316.512.512,0,0,0,.056.412,67.468,67.468,0,0,1,2.968,7.984.507.507,0,0,0,.489.372h3.044a.508.508,0,0,0,.507-.507v-9.132A.507.507,0,0,0,369.624,117.33Zm-.507,9.132h-2.157c-.481-1.567-1.9-5.652-2.694-7.34a16.523,16.523,0,0,1,4.851-.771Z" transform="translate(-363.046 -117.33)" fill="#508ff4"/>
      </g>
    </g>
  </g>
</svg>
