<svg xmlns="http://www.w3.org/2000/svg" width="27.768" height="33.323" viewBox="0 0 27.768 33.323">
  <g id="bell" transform="translate(-42.675)">
    <g id="Grupo_3" data-name="Grupo 3" transform="translate(42.675)">
      <g id="Grupo_2" data-name="Grupo 2">
        <path id="Trazado_1" data-name="Trazado 1" d="M70.345,28.107l-2.384-3.974a11.8,11.8,0,0,1-1.683-6.073V14.579a9.732,9.732,0,0,0-6.942-9.31V2.777a2.777,2.777,0,0,0-5.554,0V5.269a9.732,9.732,0,0,0-6.942,9.31V18.06a11.811,11.811,0,0,1-1.681,6.072l-2.384,3.974a.7.7,0,0,0,.594,1.052H69.749a.694.694,0,0,0,.6-1.051Z" transform="translate(-42.675 0)" fill="#c7c7c7"/>
      </g>
    </g>
    <g id="Grupo_5" data-name="Grupo 5" transform="translate(52.187 30.546)">
      <g id="Grupo_4" data-name="Grupo 4">
        <path id="Trazado_2" data-name="Trazado 2" d="M188.815,469.333a4.831,4.831,0,0,0,8.745,0Z" transform="translate(-188.815 -469.333)" fill="#c7c7c7"/>
      </g>
    </g>
  </g>
</svg>
