<svg xmlns="http://www.w3.org/2000/svg" width="23.352" height="15.01" viewBox="0 0 23.352 15.01">
  <g id="group" transform="translate(0.25 -92)">
    <g id="Grupo_102" data-name="Grupo 102" transform="translate(0 92.25)">
      <path id="Trazado_1118" data-name="Trazado 1118" d="M19.764,98.635a2.609,2.609,0,1,0-2.993,0,4.521,4.521,0,0,0-1.542.9,5.849,5.849,0,0,0-2.116-1.153,3.305,3.305,0,1,0-3.418,0A5.9,5.9,0,0,0,7.6,99.525a4.557,4.557,0,0,0-1.524-.886,2.609,2.609,0,1,0-2.993,0A4.58,4.58,0,0,0,0,102.966v.3a.019.019,0,0,0,.018.018h5.53a6.082,6.082,0,0,0-.05.764v.307A2.4,2.4,0,0,0,7.9,106.76h7.008a2.4,2.4,0,0,0,2.405-2.406v-.307a6.082,6.082,0,0,0-.05-.764h5.566a.019.019,0,0,0,.018-.018v-.3A4.6,4.6,0,0,0,19.764,98.635ZM16.382,96.5A1.886,1.886,0,1,1,18.3,98.381h-.072A1.883,1.883,0,0,1,16.382,96.5Zm-7.569-.94a2.582,2.582,0,1,1,2.731,2.577h-.3A2.586,2.586,0,0,1,8.813,95.555Zm-6.131.94A1.886,1.886,0,1,1,4.6,98.381H4.531A1.886,1.886,0,0,1,2.681,96.5Zm2.993,6.059H.733A3.863,3.863,0,0,1,4.54,99.1h.054a3.823,3.823,0,0,1,2.464.918A5.937,5.937,0,0,0,5.675,102.555Zm10.911,1.8a1.685,1.685,0,0,1-1.682,1.682H7.895a1.685,1.685,0,0,1-1.682-1.682v-.307a5.194,5.194,0,0,1,5.033-5.186c.05,0,.1,0,.154,0s.1,0,.154,0a5.194,5.194,0,0,1,5.033,5.186Zm.538-1.8a5.921,5.921,0,0,0-1.37-2.514A3.842,3.842,0,0,1,18.24,99.1h.054a3.863,3.863,0,0,1,3.807,3.45Z" transform="translate(0 -92.25)" fill="#508ff4" stroke="#508ef4" stroke-width="0.5"/>
    </g>
  </g>
</svg>
