<svg id="gear" xmlns="http://www.w3.org/2000/svg" width="33.323" height="33.323" viewBox="0 0 33.323 33.323">
  <g id="Grupo_121" data-name="Grupo 121" transform="translate(11.78 11.78)">
    <g id="Grupo_120" data-name="Grupo 120">
      <path id="Trazado_1131" data-name="Trazado 1131" d="M185.881,181a4.881,4.881,0,1,0,4.881,4.881A4.887,4.887,0,0,0,185.881,181Z" transform="translate(-181 -181)" fill="#c7c7c7"/>
    </g>
  </g>
  <g id="Grupo_123" data-name="Grupo 123">
    <g id="Grupo_122" data-name="Grupo 122">
      <path id="Trazado_1132" data-name="Trazado 1132" d="M33.323,19.415V13.908l-4.517-.89a12.545,12.545,0,0,0-.983-2.365l2.521-3.781L26.451,2.98,22.67,5.5A12.544,12.544,0,0,0,20.3,4.517L19.415,0H13.908l-.89,4.517a12.546,12.546,0,0,0-2.365.983L6.872,2.98,2.98,6.872,5.5,10.653a12.544,12.544,0,0,0-.983,2.365L0,13.908v5.507l4.517.89A12.546,12.546,0,0,0,5.5,22.67L2.98,26.451l3.893,3.893,3.781-2.521a12.544,12.544,0,0,0,2.365.983l.889,4.517h5.507l.89-4.517a12.546,12.546,0,0,0,2.365-.983l3.781,2.521,3.893-3.893L27.823,22.67a12.544,12.544,0,0,0,.983-2.365ZM16.662,23.5A6.834,6.834,0,1,1,23.5,16.662,6.842,6.842,0,0,1,16.662,23.5Z" fill="#c7c7c7"/>
    </g>
  </g>
</svg>
