<svg xmlns="http://www.w3.org/2000/svg" width="23.305" height="22.585" viewBox="0 0 23.305 22.585">
  <path id="online" d="M18.427,15.94A2.357,2.357,0,0,0,16.1,11.911L14.629,9.362a1.59,1.59,0,0,0-2.722-.053,23.386,23.386,0,0,1-7.084,7.166.38.38,0,0,0-.127.5c.015.028,2.453,4.25,2.469,4.278a.38.38,0,1,0,.658-.38L5.537,16.913a24.134,24.134,0,0,0,7.013-7.2.83.83,0,0,1,1.421.028l5.269,9.127a.83.83,0,0,1-.686,1.245A24.147,24.147,0,0,0,8.49,22.749l-3.812,2.2a1.332,1.332,0,0,1-1.817-.487L.938,21.13a1.332,1.332,0,0,1,.487-1.817L3.74,17.976a.38.38,0,0,0-.38-.658L1.045,18.655A2.092,2.092,0,0,0,.28,21.51L2.2,24.842a2.092,2.092,0,0,0,2.855.765l.088-.051L7.521,29.67a1.234,1.234,0,0,0,1.687.452l.833-.481a1.234,1.234,0,0,0,.452-1.687L8.809,25.039a.38.38,0,1,0-.658.38l1.683,2.916a.475.475,0,0,1-.174.649l-.833.481a.475.475,0,0,1-.649-.174L5.8,25.177l3.041-1.756a23.385,23.385,0,0,1,9.739-2.548A1.59,1.59,0,0,0,19.9,18.489Zm-.108-2.623a1.6,1.6,0,0,1-.279,1.952l-1.552-2.688A1.6,1.6,0,0,1,18.318,13.317Zm3.715-1.689-.983.567a.38.38,0,1,1-.38-.658l.983-.567a.38.38,0,0,1,.38.658ZM17.807,9.464l.24-.894a.38.38,0,1,1,.734.2l-.24.894a.38.38,0,1,1-.734-.2Zm4.967,6.22a.38.38,0,0,1-.367.282,6.232,6.232,0,0,1-.993-.253.38.38,0,1,1,.2-.734l.894.24a.38.38,0,0,1,.269.465Z" transform="translate(0.255 -8.025)" fill="#508ff4" stroke="#508ff4" stroke-width="0.5"/>
</svg>
