<svg xmlns="http://www.w3.org/2000/svg" width="17.079" height="17.564" viewBox="0 0 17.079 17.564">
  <g id="download" transform="translate(0.3 0.3)">
    <g id="Grupo_89" data-name="Grupo 89" transform="translate(0 10.626)">
      <g id="Grupo_88" data-name="Grupo 88">
        <path id="Trazado_1110" data-name="Trazado 1110" d="M32.911,307.2a.634.634,0,0,0-.634.634v3.8a.634.634,0,0,1-.634.634H18.967a.634.634,0,0,1-.634-.634v-3.8a.634.634,0,1,0-1.268,0v3.8a1.9,1.9,0,0,0,1.9,1.9H31.643a1.9,1.9,0,0,0,1.9-1.9v-3.8A.634.634,0,0,0,32.911,307.2Z" transform="translate(-17.066 -307.2)" fill="#508ff4" stroke="#508ff4" stroke-width="0.6"/>
      </g>
    </g>
    <g id="Grupo_91" data-name="Grupo 91" transform="translate(4.444 0)">
      <g id="Grupo_90" data-name="Grupo 90">
        <path id="Trazado_1111" data-name="Trazado 1111" d="M144.14,10.646a.647.647,0,0,0-.881,0l-2.088,2.027V.616a.634.634,0,0,0-1.268,0V12.673l-2.087-2.027a.647.647,0,0,0-.9.015.6.6,0,0,0,0,.855l3.169,3.078a.647.647,0,0,0,.9,0h0l3.169-3.078A.6.6,0,0,0,144.14,10.646Z" transform="translate(-136.742)" fill="#508ff4" stroke="#508ff4" stroke-width="0.6"/>
      </g>
    </g>
  </g>
</svg>
