<svg id="print" xmlns="http://www.w3.org/2000/svg" width="21.537" height="21.537" viewBox="0 0 21.537 21.537">
  <g id="Grupo_10" data-name="Grupo 10">
    <g id="Grupo_9" data-name="Grupo 9">
      <path id="Trazado_8" data-name="Trazado 8" d="M20.275,7.68v-2a1.9,1.9,0,0,0-1.893-1.893h-1l-3.6-3.6,0,0A.633.633,0,0,0,13.344,0H4.417a.631.631,0,0,0-.631.631V3.786H3.155A1.9,1.9,0,0,0,1.262,5.679v2A1.9,1.9,0,0,0,0,9.464V17.12a1.9,1.9,0,0,0,1.893,1.893H3.786v1.893a.631.631,0,0,0,.631.631h12.7a.631.631,0,0,0,.631-.631V19.013h1.893a1.9,1.9,0,0,0,1.893-1.893V9.464A1.9,1.9,0,0,0,20.275,7.68ZM17.751,5.048h.631a.632.632,0,0,1,.631.631V7.572H17.751ZM13.965,2.154,15.6,3.786H13.965ZM5.048,1.262H12.7V4.417a.631.631,0,0,0,.631.631h3.155V7.572H5.048ZM2.524,5.679a.632.632,0,0,1,.631-.631h.631V7.572H2.524Zm13.965,14.6H5.048v-6.31H16.489Zm3.786-3.155a.632.632,0,0,1-.631.631H17.751V13.965h.631a.631.631,0,0,0,0-1.262H3.155a.631.631,0,0,0,0,1.262h.631v3.786H1.893a.632.632,0,0,1-.631-.631V9.464a.632.632,0,0,1,.631-.631H19.644a.632.632,0,0,1,.631.631Z" fill="#508ff4"/>
    </g>
  </g>
  <g id="Grupo_12" data-name="Grupo 12" transform="translate(6.31 15.227)">
    <g id="Grupo_11" data-name="Grupo 11">
      <path id="Trazado_9" data-name="Trazado 9" d="M158.287,362h-7.656a.631.631,0,1,0,0,1.262h7.656a.631.631,0,0,0,0-1.262Z" transform="translate(-150 -362)" fill="#508ff4"/>
    </g>
  </g>
  <g id="Grupo_14" data-name="Grupo 14" transform="translate(6.31 17.751)">
    <g id="Grupo_13" data-name="Grupo 13">
      <path id="Trazado_10" data-name="Trazado 10" d="M158.287,422h-7.656a.631.631,0,0,0,0,1.262h7.656a.631.631,0,0,0,0-1.262Z" transform="translate(-150 -422)" fill="#508ff4"/>
    </g>
  </g>
  <g id="Grupo_16" data-name="Grupo 16" transform="translate(2.524 10.095)">
    <g id="Grupo_15" data-name="Grupo 15">
      <path id="Trazado_11" data-name="Trazado 11" d="M61.893,240H60.631a.631.631,0,1,0,0,1.262h1.262a.631.631,0,0,0,0-1.262Z" transform="translate(-60 -240)" fill="#508ff4"/>
    </g>
  </g>
</svg>
