<svg xmlns="http://www.w3.org/2000/svg" width="15.022" height="18.31" viewBox="0 0 15.022 18.31">
  <g id="trash" transform="translate(0.156 0.15)">
    <path id="Trazado_4" data-name="Trazado 4" d="M14.664,4.026l-.4-1.192a1.109,1.109,0,0,0-1.053-.759H9.871V.986A.987.987,0,0,0,8.885,0H5.824a.987.987,0,0,0-.986.986V2.075H1.5a1.109,1.109,0,0,0-1.053.759l-.4,1.192A.892.892,0,0,0,.892,5.2h.416l.915,11.313a1.637,1.637,0,0,0,1.622,1.5H11.05a1.637,1.637,0,0,0,1.622-1.5L13.587,5.2h.23a.892.892,0,0,0,.846-1.175Zm-8.77-2.97H8.815V2.075H5.893ZM11.62,16.428a.575.575,0,0,1-.57.527H3.844a.575.575,0,0,1-.57-.527L2.366,5.2H12.528ZM1.118,4.145l.326-.978A.055.055,0,0,1,1.5,3.13H13.213a.055.055,0,0,1,.052.038l.326.978Zm0,0" transform="translate(0.001)" fill="#508ff4" stroke="#508ff4" stroke-width="0.3"/>
    <path id="Trazado_5" data-name="Trazado 5" d="M268.8,176.142h.028a.527.527,0,0,0,.526-.5l.5-9.512a.528.528,0,0,0-1.054-.055l-.5,9.512A.528.528,0,0,0,268.8,176.142Zm0,0" transform="translate(-258.858 -159.752)" fill="#508ff4" stroke="#508ff4" stroke-width="0.3"/>
    <path id="Trazado_6" data-name="Trazado 6" d="M106.314,175.647a.528.528,0,0,0,.526.5h.029a.528.528,0,0,0,.5-.556l-.519-9.512a.528.528,0,1,0-1.054.057Zm0,0" transform="translate(-102.072 -159.754)" fill="#508ff4" stroke="#508ff4" stroke-width="0.3"/>
    <path id="Trazado_7" data-name="Trazado 7" d="M194.782,176.145a.528.528,0,0,0,.528-.528v-9.512a.528.528,0,1,0-1.055,0v9.512A.528.528,0,0,0,194.782,176.145Zm0,0" transform="translate(-187.421 -159.754)" fill="#508ff4" stroke="#508ff4" stroke-width="0.3"/>
  </g>
</svg>
