<svg xmlns="http://www.w3.org/2000/svg" width="17.249" height="15.492" viewBox="0 0 17.249 15.492">
  <g id="alert" transform="translate(0.27 0.25)">
    <g id="Grupo_95" data-name="Grupo 95" transform="translate(0 0)">
      <g id="Grupo_94" data-name="Grupo 94" transform="translate(0)">
        <path id="Trazado_1115" data-name="Trazado 1115" d="M16.443,38.36,10.056,27.3a1.965,1.965,0,0,0-3.4,0L.266,38.36a1.965,1.965,0,0,0,1.7,2.947H14.742a1.965,1.965,0,0,0,1.7-2.947ZM15.6,39.835a.976.976,0,0,1-.854.493H1.968a.986.986,0,0,1-.854-1.479L7.5,27.787a.986.986,0,0,1,1.708,0L15.6,38.849A.976.976,0,0,1,15.6,39.835Z" transform="translate(0 -26.315)" fill="#508ff4" stroke="#508ff4" stroke-width="0.5"/>
      </g>
    </g>
    <g id="Grupo_97" data-name="Grupo 97" transform="translate(7.865 4.886)">
      <g id="Grupo_96" data-name="Grupo 96">
        <rect id="Rectángulo_6" data-name="Rectángulo 6" width="0.979" height="4.895" fill="#508ff4" stroke="#508ff4" stroke-width="0.5"/>
      </g>
    </g>
    <g id="Grupo_99" data-name="Grupo 99" transform="translate(7.702 10.759)">
      <g id="Grupo_98" data-name="Grupo 98">
        <path id="Trazado_1116" data-name="Trazado 1116" d="M236.655,355.99a.653.653,0,1,0,.653.653A.653.653,0,0,0,236.655,355.99Z" transform="translate(-236.002 -355.99)" fill="#508ff4" stroke="#508ff4" stroke-width="0.5"/>
      </g>
    </g>
  </g>
</svg>
