<svg xmlns="http://www.w3.org/2000/svg" width="16.318" height="14.952" viewBox="0 0 16.318 14.952">
  <path id="star" d="M3.535,14.928a.865.865,0,0,1-.492-.153.783.783,0,0,1-.326-.827L3.733,9.68.287,6.8a.776.776,0,0,1-.246-.85A.832.832,0,0,1,.763,5.4L5.323,5,7.126.979a.856.856,0,0,1,1.544,0L10.472,5l4.559.395a.831.831,0,0,1,.723.551.776.776,0,0,1-.245.85L12.062,9.68l1.016,4.269a.782.782,0,0,1-.326.827.872.872,0,0,1-.923.038L7.9,12.573,3.966,14.815A.872.872,0,0,1,3.535,14.928ZM7.9,11.607a.873.873,0,0,1,.43.114l3.711,2.117-.959-4.029a.779.779,0,0,1,.266-.78L14.6,6.306l-4.3-.373a.836.836,0,0,1-.7-.485l-1.7-3.8-1.7,3.8a.834.834,0,0,1-.7.483L1.2,6.305,4.449,9.027a.777.777,0,0,1,.266.781l-.958,4.029,3.711-2.116A.872.872,0,0,1,7.9,11.607ZM5.288,5.08h0Zm5.218,0h0Zm0,0" transform="translate(0.261 -0.242)" fill="#508ff4" stroke="#4d89ea" stroke-width="0.5"/>
</svg>
