<svg id="reply" xmlns="http://www.w3.org/2000/svg" width="22.416" height="16.813" viewBox="0 0 22.416 16.813">
  <g id="Grupo_7" data-name="Grupo 7" transform="translate(0 0)">
    <path id="Trazado_3" data-name="Trazado 3" d="M10.507,68.193h-2.1v-3.5a.7.7,0,0,0-1.219-.471L.182,71.925a.7.7,0,0,0,0,.941l7.005,7.706a.7.7,0,0,0,.518.23.724.724,0,0,0,.254-.046.7.7,0,0,0,.447-.654V76.6h1.949A16.757,16.757,0,0,1,21.26,80.634a.7.7,0,0,0,1.156-.532A11.922,11.922,0,0,0,10.507,68.193ZM10.354,75.2H7.705a.7.7,0,0,0-.7.7V78.29L1.647,72.4,7,66.5v2.392a.7.7,0,0,0,.7.7h2.8a10.51,10.51,0,0,1,10.4,8.983A18.179,18.179,0,0,0,10.354,75.2Z" transform="translate(0 -63.99)" fill="#508ff4"/>
  </g>
</svg>
