<svg xmlns="http://www.w3.org/2000/svg" width="21.161" height="21.17" viewBox="0 0 21.161 21.17">
  <g id="chat" transform="translate(0.034 0.15)">
    <g id="Grupo_119" data-name="Grupo 119" transform="translate(0.117)">
      <path id="Trazado_1127" data-name="Trazado 1127" d="M17.922,3.059A10.432,10.432,0,0,0,2.48,17.051a3.915,3.915,0,0,1-1.643,1.9.973.973,0,0,0,.28,1.835,4.964,4.964,0,0,0,.738.057h0A6.747,6.747,0,0,0,5.6,19.629,10.435,10.435,0,0,0,17.922,3.059Zm-.835,13.918A9.257,9.257,0,0,1,5.862,18.414a.587.587,0,0,0-.66.039,5.618,5.618,0,0,1-3.273,1.2,5.938,5.938,0,0,0,1.787-2.469.594.594,0,0,0-.1-.629,9.252,9.252,0,1,1,13.472.419Z" transform="translate(-0.117 0)" fill="#508ff4" stroke="#508ff4" stroke-width="0.3"/>
      <path id="Trazado_1128" data-name="Trazado 1128" d="M134.612,160h-8.739a.59.59,0,0,0,0,1.18h8.739a.59.59,0,0,0,0-1.18Z" transform="translate(-119.814 -153.008)" fill="#508ff4" stroke="#508ff4" stroke-width="0.3"/>
      <path id="Trazado_1129" data-name="Trazado 1129" d="M134.612,225.3h-8.739a.59.59,0,0,0,0,1.18h8.739a.59.59,0,1,0,0-1.18Z" transform="translate(-119.814 -215.455)" fill="#508ff4" stroke="#508ff4" stroke-width="0.3"/>
      <path id="Trazado_1130" data-name="Trazado 1130" d="M134.612,290.6h-8.739a.59.59,0,0,0,0,1.18h8.739a.59.59,0,1,0,0-1.18Z" transform="translate(-119.814 -277.902)" fill="#508ff4" stroke="#508ff4" stroke-width="0.3"/>
    </g>
  </g>
</svg>
