<svg xmlns="http://www.w3.org/2000/svg" width="21.023" height="21.025" viewBox="0 0 21.023 21.025">
  <g id="edit" transform="translate(-108.19 -0.261)">
    <path id="Trazado_1114" data-name="Trazado 1114" d="M127.429,1.205a3.225,3.225,0,0,0-4.561,0L110.081,13.992a.716.716,0,0,0-.184.316l-1.681,6.07a.717.717,0,0,0,.882.882l6.07-1.682a.717.717,0,0,0,.316-.184L128.27,6.608a3.229,3.229,0,0,0,0-4.561ZM111.643,14.458,122.108,3.993l3.375,3.375L115.018,17.833Zm-.674,1.353,2.7,2.7-3.73,1.033ZM127.257,5.594l-.76.76-3.375-3.375.76-.76a1.792,1.792,0,0,1,2.534,0l.841.841A1.794,1.794,0,0,1,127.257,5.594Zm0,0" transform="translate(0)" fill="#fff"/>
  </g>
</svg>
